{"title":"October Sky (1999) DVD Rip (Shy_Rage)","uid":6644343,"size":731465684,"categoryP":"video","categoryS":"movies","magnet":"?xt=urn:btih:68b53fcef2930ec9708aa337a617824c0f5addab&amp;dn=October+Sky+%281999%29+DVD+Rip+%28Shy_Rage%29&amp;tr=udp%3A%2F%2Ftracker.openbittorrent.com%3A80&amp;tr=udp%3A%2F%2Fopen.demonii.com%3A1337&amp;tr=udp%3A%2F%2Ftracker.coppersurfer.tk%3A6969&amp;tr=udp%3A%2F%2Fexodus.desync.com%3A6969","seeders":0,"leechers":0,"uploader":"Shy_Rage","files":-1,"time":1314888372,"description":"~*~*~*~*~*~October Sky (1999) DVD Rip (Shy_Rage)~*~*~*~*~*~\n\n\n~*~*~*~*~*~Movie Info~*~*~*~*~*~\n\nThe true story of Homer Hickam, a coal miner's son who was inspired by the first Sputnik launch to take up rocketry \n\nagainst his father's wishes.\n\n\nIMDB RATINGS: - 7/10\n\n~*~*~*~*~*~*~*~*~*~*~*~*~*~*~*~*~\n\n\nDirector:      Joe Johnston\n\nWriters:       Homer H. Hickam Jr. (book), Lewis Colick (screenplay)\n\n\n\nCast: - \n\nJake Gyllenhaal\t  ...\t Homer Hickam\n\nChris Cooper\t  ...\t John Hickam\n\nLaura Dern\t  ...    Miss Riley\n\nChris Owen\t  ...\t Quentin\n\nWilliam Lee Scott ...\t Roy Lee\n\nChad Lindberg\t  ...\t O'Dell\n\nNatalie Canerday  ...\t Elsie Hickam\n\nScott Miles\t  ...\t Jim Hickam\n\n\n=====================================================\n\n~*~*~*~*~*~*~*~*~*~*~*~~*~*~*~*~*~*~*~*~*~*~*~\n\n======================================================\n\nGeneral\nComplete name                    : October Sky\nFormat                           : AVI\nFormat/Info                      : Audio Video Interleave\nFile size                        : 697 MiB\nDuration                         : 1h 46mn\nOverall bit rate                 : 915 Kbps\nWriting library                  : VirtualDub build 0/release\n\nVideo\nID                               : 0\nFormat                           : MPEG-4 Visual\nCodec ID                         : DIV3\nCodec ID/Hint                    : DivX 3 Low\nDuration                         : 1h 46mn\nBit rate                         : 824 Kbps\nWidth                            : 576 pixels\nHeight                           : 226 pixels\nDisplay aspect ratio             : 2.549\nFrame rate                       : 23.976 fps\nColor space                      : YUV\nChroma subsampling               : 4:2:0\nBit depth                        : 8 bits\nCompression mode                 : Lossy\nBits/(Pixel*Frame)               : 0.264\nStream size                      : 628 MiB (90%)\n\nAudio\nID                               : 1\nFormat                           : MPEG Audio\nFormat version                   : Version 1\nFormat profile                   : Layer 3\nMode                             : Joint stereo\nMode extension                   : MS Stereo\nCodec ID                         : 55\nCodec ID/Hint                    : MP3\nDuration                         : 1h 46mn\nBit rate mode                    : Variable\nBit rate                         : 80.0 Kbps\nChannel(s)                       : 2 channels\nSampling rate                    : 44.1 KHz\nCompression mode                 : Lossy\nStream size                      : 60.3 MiB (9%)\nAlignment                        : Aligned on interleaves\nInterleave, duration             : 26 ms (0.63 video frame)\nInterleave, preload duration     : 200 ms\n\n\n~*~*~*~*~*~ English Subtitles (Softcoded) file included ~*~*~*~*~*~\n\n\n======================================================================\n~*~*~*~*~*~~*~*~*~*~*~~*~*~*~*~*~~*~*~*~*~*~~*~*~*~*~*~~*~*~*~*~*~~*~*\n======================================================================\n\n\nPLEASE SEED AND RATE MY TORRENTS!!!","torrent":{"xt":"urn:btih:68b53fcef2930ec9708aa337a617824c0f5addab","amp;dn":"October+Sky+%281999%29+DVD+Rip+%28Shy_Rage%29","amp;tr":["udp%3A%2F%2Ftracker.openbittorrent.com%3A80","udp%3A%2F%2Fopen.demonii.com%3A1337","udp%3A%2F%2Ftracker.coppersurfer.tk%3A6969","udp%3A%2F%2Fexodus.desync.com%3A6969"],"infoHash":"68b53fcef2930ec9708aa337a617824c0f5addab","infoHashBuffer":{"type":"Buffer","data":[104,181,63,206,242,147,14,201,112,138,163,55,166,23,130,76,15,90,221,171]},"announce":[],"urlList":[]}}